<svg width="586" height="176" viewBox="0 0 586 176" fill="none" xmlns="http://www.w3.org/2000/svg">
<path d="M140.894 32.4848V134.443C140.894 135.203 141.013 135.82 141.25 136.294C141.535 136.722 141.986 137.006 142.603 137.149L145.309 137.79C145.878 137.932 146.163 138.146 146.163 138.43C146.163 138.81 145.926 139 145.451 139H110.563C110.373 139 110.207 138.953 110.065 138.858C109.922 138.763 109.851 138.62 109.851 138.43C109.851 138.288 109.899 138.169 109.994 138.074C110.136 137.932 110.373 137.837 110.706 137.79L113.411 137.149C114.076 137.006 114.527 136.722 114.764 136.294C115.001 135.82 115.12 135.203 115.12 134.443V41.7408C115.12 41.3611 115.025 41.0763 114.835 40.8864C114.645 40.6965 114.337 40.6016 113.91 40.6016H111.133C110.801 40.6016 110.563 40.5541 110.421 40.4592C110.326 40.3168 110.278 40.1507 110.278 39.9608C110.278 39.7709 110.35 39.6285 110.492 39.5336C110.634 39.4387 110.801 39.3675 110.99 39.32L137.975 31.844C138.545 31.7016 138.925 31.6067 139.114 31.5592C139.352 31.5117 139.613 31.488 139.898 31.488C140.23 31.488 140.467 31.5829 140.61 31.7728C140.799 31.9627 140.894 32.2 140.894 32.4848ZM138.758 90.6552L137.762 89.5872L140.61 87.0952C145.594 82.7283 150.055 79.4293 153.995 77.1984C157.935 74.92 161.447 73.7808 164.533 73.7808C168.757 73.7808 172.033 74.9912 174.358 77.412C176.732 79.7853 178.203 83.6539 178.773 89.0176L183.614 134.443C183.709 135.203 183.852 135.82 184.042 136.294C184.279 136.722 184.706 137.006 185.323 137.149L188.029 137.79C188.361 137.837 188.575 137.932 188.67 138.074C188.812 138.169 188.883 138.288 188.883 138.43C188.883 138.62 188.812 138.763 188.67 138.858C188.575 138.953 188.409 139 188.171 139H152.642C152.168 139 151.93 138.81 151.93 138.43C151.93 138.146 152.215 137.932 152.785 137.79L155.49 137.149C156.155 137.006 156.63 136.722 156.914 136.294C157.199 135.82 157.294 135.203 157.199 134.443L153.426 91.7232C153.236 89.3973 152.761 87.7123 152.002 86.668C151.242 85.5763 150.008 85.0304 148.299 85.0304C147.113 85.0304 145.95 85.3389 144.81 85.956C143.719 86.5256 142.603 87.3088 141.464 88.3056L138.758 90.6552ZM235.031 137.434V126.896V126.398V84.0336C235.031 83.6539 234.936 83.3691 234.746 83.1792C234.556 82.9893 234.248 82.8944 233.82 82.8944H231.044C230.711 82.8944 230.474 82.8469 230.332 82.752C230.237 82.6096 230.189 82.4435 230.189 82.2536C230.189 82.0637 230.26 81.9213 230.403 81.8264C230.545 81.7315 230.711 81.6603 230.901 81.6128L257.886 74.1368C258.408 73.9944 258.788 73.8995 259.025 73.852C259.263 73.8045 259.524 73.7808 259.808 73.7808C260.141 73.7808 260.378 73.8757 260.52 74.0656C260.71 74.2555 260.805 74.4928 260.805 74.7776V134.443C260.805 135.203 260.924 135.82 261.161 136.294C261.446 136.722 261.897 137.006 262.514 137.149L265.22 137.79C265.552 137.837 265.765 137.932 265.86 138.074C266.003 138.169 266.074 138.288 266.074 138.43C266.074 138.62 266.003 138.763 265.86 138.858C265.765 138.953 265.599 139 265.362 139H236.74C236.17 139 235.743 138.858 235.458 138.573C235.173 138.288 235.031 137.908 235.031 137.434ZM194.091 123.478V84.0336C194.091 83.6539 193.996 83.3691 193.806 83.1792C193.616 82.9893 193.308 82.8944 192.88 82.8944H190.104C189.771 82.8944 189.534 82.8469 189.392 82.752C189.297 82.6096 189.249 82.4435 189.249 82.2536C189.249 82.0637 189.32 81.9213 189.463 81.8264C189.605 81.7315 189.771 81.6603 189.961 81.6128L216.946 74.1368C217.516 73.9944 217.895 73.8995 218.085 73.852C218.323 73.8045 218.584 73.7808 218.868 73.7808C219.201 73.7808 219.438 73.8757 219.58 74.0656C219.77 74.2555 219.865 74.4928 219.865 74.7776V120.773C219.865 123.668 220.411 125.804 221.503 127.181C222.642 128.51 224.327 129.174 226.558 129.174C227.982 129.174 229.406 128.89 230.83 128.32C232.301 127.75 233.631 126.943 234.817 125.899L237.523 123.55L238.52 124.618L235.672 127.11C230.355 131.714 225.443 135.084 220.933 137.22C216.471 139.356 212.484 140.424 208.972 140.424C204.557 140.424 200.973 139.095 198.22 136.437C195.467 133.779 194.091 129.459 194.091 123.478ZM300.816 74.4928V134.443C300.816 135.203 300.935 135.82 301.172 136.294C301.457 136.722 301.908 137.006 302.525 137.149L305.231 137.79C305.8 137.932 306.085 138.146 306.085 138.43C306.085 138.81 305.848 139 305.373 139H270.485C270.295 139 270.129 138.953 269.987 138.858C269.844 138.763 269.773 138.62 269.773 138.43C269.773 138.288 269.821 138.169 269.915 138.074C270.058 137.932 270.295 137.837 270.627 137.79L273.333 137.149C273.998 137.006 274.449 136.722 274.686 136.294C274.923 135.82 275.042 135.203 275.042 134.443V83.7488C275.042 83.3691 274.947 83.0843 274.757 82.8944C274.567 82.7045 274.259 82.6096 273.831 82.6096H271.055C270.722 82.6096 270.485 82.5621 270.343 82.4672C270.248 82.3248 270.2 82.1587 270.2 81.9688C270.2 81.7789 270.271 81.6365 270.414 81.5416C270.556 81.4467 270.722 81.3755 270.912 81.328L297.897 73.852C298.467 73.7096 298.846 73.6147 299.036 73.5672C299.274 73.5197 299.535 73.496 299.819 73.496C300.152 73.496 300.389 73.5909 300.531 73.7808C300.721 73.9707 300.816 74.208 300.816 74.4928ZM298.68 90.6552L297.683 89.5872L300.531 87.0952C305.515 82.7283 309.977 79.4293 313.917 77.1984C317.857 74.92 321.369 73.7808 324.455 73.7808C328.679 73.7808 331.954 74.9912 334.28 77.412C336.654 79.7853 338.125 83.6539 338.695 89.0176L343.536 134.443C343.631 135.203 343.774 135.82 343.963 136.294C344.201 136.722 344.628 137.006 345.245 137.149L347.951 137.79C348.283 137.837 348.497 137.932 348.591 138.074C348.734 138.169 348.805 138.288 348.805 138.43C348.805 138.62 348.734 138.763 348.591 138.858C348.497 138.953 348.33 139 348.093 139H312.564C312.09 139 311.852 138.81 311.852 138.43C311.852 138.146 312.137 137.932 312.707 137.79L315.412 137.149C316.077 137.006 316.551 136.722 316.836 136.294C317.121 135.82 317.216 135.203 317.121 134.443L313.347 91.7232C313.158 89.3973 312.683 87.7123 311.923 86.668C311.164 85.5763 309.93 85.0304 308.221 85.0304C307.034 85.0304 305.871 85.3389 304.732 85.956C303.641 86.5256 302.525 87.3088 301.386 88.3056L298.68 90.6552ZM353.579 77.9104L348.31 76.4864C347.978 76.3915 347.764 76.2965 347.669 76.2016C347.527 76.0592 347.456 75.9168 347.456 75.7744C347.456 75.632 347.527 75.5133 347.669 75.4184C347.764 75.276 347.883 75.2048 348.025 75.2048H353.721C353.864 75.2048 354.006 75.1811 354.148 75.1336C354.338 75.0861 354.576 74.9675 354.86 74.7776L375.651 60.1104C376.031 59.8256 376.434 59.5883 376.861 59.3984C377.288 59.2085 377.644 59.1136 377.929 59.1136C378.309 59.1136 378.617 59.256 378.855 59.5408C379.092 59.7781 379.211 60.1579 379.211 60.68V118.352C379.211 122.577 379.97 125.733 381.489 127.822C383.008 129.863 385.049 130.883 387.612 130.883C388.467 130.883 389.274 130.741 390.033 130.456C390.84 130.171 391.576 129.697 392.24 129.032C392.905 128.367 393.498 127.466 394.02 126.326C394.543 125.187 394.97 123.763 395.302 122.054C395.397 121.675 395.587 121.485 395.872 121.485C396.156 121.485 396.251 121.675 396.156 122.054C395.444 126.184 394.281 129.602 392.668 132.307C391.101 135.013 388.941 137.054 386.188 138.43C383.483 139.759 380.065 140.424 375.936 140.424C368.911 140.424 363.571 138.81 359.916 135.582C356.261 132.355 354.433 127.371 354.433 120.63V79.192C354.433 78.7648 354.386 78.4563 354.291 78.2664C354.196 78.0765 353.959 77.9579 353.579 77.9104ZM371.806 77.056L372.66 75.2048H395.872C396.109 75.2048 396.275 75.2523 396.37 75.3472C396.512 75.3947 396.584 75.5371 396.584 75.7744C396.584 76.1067 396.394 76.4152 396.014 76.7C395.634 76.9373 395.112 77.056 394.448 77.056H371.806ZM430.439 32.4848V134.443C430.439 135.203 430.558 135.82 430.795 136.294C431.08 136.722 431.531 137.006 432.148 137.149L434.854 137.79C435.186 137.837 435.399 137.932 435.494 138.074C435.637 138.169 435.708 138.288 435.708 138.43C435.708 138.62 435.637 138.763 435.494 138.858C435.399 138.953 435.233 139 434.996 139H400.108C399.918 139 399.752 138.953 399.61 138.858C399.467 138.763 399.396 138.62 399.396 138.43C399.396 138.288 399.443 138.169 399.538 138.074C399.681 137.932 399.918 137.837 400.25 137.79L402.956 137.149C403.621 137.006 404.071 136.722 404.309 136.294C404.546 135.82 404.665 135.203 404.665 134.443V41.7408C404.665 41.3611 404.57 41.0763 404.38 40.8864C404.19 40.6965 403.882 40.6016 403.454 40.6016H400.678C400.345 40.6016 400.108 40.5541 399.966 40.4592C399.871 40.3168 399.823 40.1507 399.823 39.9608C399.823 39.7709 399.894 39.6285 400.037 39.5336C400.179 39.4387 400.345 39.3675 400.535 39.32L427.52 31.844C428.09 31.7016 428.469 31.6067 428.659 31.5592C428.897 31.5117 429.158 31.488 429.442 31.488C429.775 31.488 430.012 31.5829 430.154 31.7728C430.344 31.9627 430.439 32.2 430.439 32.4848ZM470.473 74.4928V134.443C470.473 135.203 470.591 135.82 470.829 136.294C471.113 136.722 471.564 137.006 472.181 137.149L474.887 137.79C475.219 137.837 475.433 137.932 475.528 138.074C475.67 138.169 475.741 138.288 475.741 138.43C475.741 138.62 475.67 138.763 475.528 138.858C475.433 138.953 475.267 139 475.029 139H440.141C439.951 139 439.785 138.953 439.643 138.858C439.501 138.763 439.429 138.62 439.429 138.43C439.429 138.288 439.477 138.169 439.572 138.074C439.714 137.932 439.951 137.837 440.284 137.79L442.989 137.149C443.654 137.006 444.105 136.722 444.342 136.294C444.579 135.82 444.698 135.203 444.698 134.443V83.7488C444.698 83.3691 444.603 83.0843 444.413 82.8944C444.223 82.7045 443.915 82.6096 443.488 82.6096H440.711C440.379 82.6096 440.141 82.5621 439.999 82.4672C439.904 82.3248 439.857 82.1587 439.857 81.9688C439.857 81.7789 439.928 81.6365 440.07 81.5416C440.213 81.4467 440.379 81.3755 440.569 81.328L467.553 73.852C468.123 73.7096 468.503 73.6147 468.693 73.5672C468.93 73.5197 469.191 73.496 469.476 73.496C469.808 73.496 470.045 73.5909 470.188 73.7808C470.378 73.9707 470.473 74.208 470.473 74.4928ZM457.301 69.4376C452.981 69.4376 449.469 68.0611 446.763 65.308C444.057 62.5549 442.705 59.1848 442.705 55.1976C442.705 51.2104 444.057 47.8403 446.763 45.0872C449.469 42.3341 452.981 40.9576 457.301 40.9576C461.667 40.9576 465.227 42.3341 467.981 45.0872C470.781 47.8403 472.181 51.2104 472.181 55.1976C472.181 59.1848 470.781 62.5549 467.981 65.308C465.227 68.0611 461.667 69.4376 457.301 69.4376ZM507.691 138.43C510.254 138.43 512.248 137.813 513.672 136.579C515.096 135.298 515.808 133.636 515.808 131.595C515.808 130.029 515.428 128.605 514.669 127.323C513.957 125.994 512.675 124.76 510.824 123.621C508.973 122.434 506.41 121.295 503.134 120.203C496.869 118.067 491.98 115.741 488.467 113.226C484.955 110.71 482.486 107.909 481.062 104.824C479.638 101.739 478.926 98.2736 478.926 94.4288C478.926 87.736 481.181 82.6333 485.69 79.1208C490.2 75.5608 496.252 73.7808 503.846 73.7808C506.837 73.7808 509.281 74.0656 511.18 74.6352C513.126 75.1573 514.598 75.7032 515.594 76.2728C516.639 76.7949 517.327 77.056 517.659 77.056C518.229 77.056 519.321 76.7949 520.934 76.2728C522.548 75.7032 524.138 75.1573 525.705 74.6352C527.319 74.0656 528.387 73.7808 528.909 73.7808C529.146 73.7808 529.383 73.852 529.621 73.9944C529.858 74.0893 530.001 74.3504 530.048 74.7776L533.038 97.4192C533.133 97.8939 533.133 98.2736 533.038 98.5584C532.991 98.8432 532.896 99.0331 532.754 99.128C532.611 99.1755 532.469 99.1755 532.326 99.128C532.184 99.0331 532.042 98.8907 531.899 98.7008C528.292 92.72 525.017 88.0445 522.074 84.6744C519.178 81.3043 516.354 78.9309 513.601 77.5544C510.895 76.1779 508.023 75.4896 504.986 75.4896C502.28 75.4896 500.239 76.1779 498.862 77.5544C497.533 78.9309 496.869 80.7584 496.869 83.0368C496.869 84.7931 497.296 86.4069 498.15 87.8784C499.005 89.3024 500.524 90.6315 502.707 91.8656C504.938 93.0997 508.118 94.2864 512.248 95.4256C517.707 96.992 522.026 98.9619 525.206 101.335C528.434 103.661 530.736 106.319 532.113 109.31C533.489 112.253 534.178 115.457 534.178 118.922C534.178 123.383 533.062 127.228 530.831 130.456C528.648 133.636 525.729 136.105 522.074 137.861C518.419 139.57 514.384 140.424 509.97 140.424C507.311 140.424 505.009 140.092 503.063 139.427C501.117 138.763 499.551 138.098 498.364 137.434C497.225 136.769 496.537 136.437 496.299 136.437C495.919 136.437 494.97 136.745 493.451 137.362C491.98 137.932 490.461 138.502 488.894 139.071C487.328 139.688 486.284 139.997 485.762 139.997C485.429 139.997 485.097 139.831 484.765 139.498C484.48 139.214 484.29 138.715 484.195 138.003L481.774 119.349C481.727 118.684 481.727 118.233 481.774 117.996C481.869 117.711 482.012 117.498 482.202 117.355C482.297 117.26 482.415 117.284 482.558 117.426C482.7 117.521 482.866 117.687 483.056 117.925C487.708 125.187 491.98 130.432 495.872 133.66C499.764 136.84 503.704 138.43 507.691 138.43ZM542.565 77.9104L537.296 76.4864C536.964 76.3915 536.75 76.2965 536.655 76.2016C536.513 76.0592 536.442 75.9168 536.442 75.7744C536.442 75.632 536.513 75.5133 536.655 75.4184C536.75 75.276 536.869 75.2048 537.011 75.2048H542.707C542.85 75.2048 542.992 75.1811 543.134 75.1336C543.324 75.0861 543.562 74.9675 543.846 74.7776L564.637 60.1104C565.016 59.8256 565.42 59.5883 565.847 59.3984C566.274 59.2085 566.63 59.1136 566.915 59.1136C567.295 59.1136 567.603 59.256 567.841 59.5408C568.078 59.7781 568.197 60.1579 568.197 60.68V118.352C568.197 122.577 568.956 125.733 570.475 127.822C571.994 129.863 574.035 130.883 576.598 130.883C577.453 130.883 578.26 130.741 579.019 130.456C579.826 130.171 580.562 129.697 581.226 129.032C581.891 128.367 582.484 127.466 583.006 126.326C583.528 125.187 583.956 123.763 584.288 122.054C584.383 121.675 584.573 121.485 584.858 121.485C585.142 121.485 585.237 121.675 585.142 122.054C584.43 126.184 583.267 129.602 581.654 132.307C580.087 135.013 577.927 137.054 575.174 138.43C572.469 139.759 569.051 140.424 564.922 140.424C557.896 140.424 552.556 138.81 548.902 135.582C545.247 132.355 543.419 127.371 543.419 120.63V79.192C543.419 78.7648 543.372 78.4563 543.277 78.2664C543.182 78.0765 542.944 77.9579 542.565 77.9104ZM560.792 77.056L561.646 75.2048H584.858C585.095 75.2048 585.261 75.2523 585.356 75.3472C585.498 75.3947 585.57 75.5371 585.57 75.7744C585.57 76.1067 585.38 76.4152 585 76.7C584.62 76.9373 584.098 77.056 583.434 77.056H560.792Z" fill="#111210"/>
<path d="M36.5297 15L73.0594 51.5297L36.5297 73.8128L1.52588e-05 51.5297L36.5297 15Z" fill="#F5855A"/>
<path d="M-3.8147e-06 51.5297L36.5297 73.8128V147.968L-3.8147e-06 51.5297Z" fill="#E8622A"/>
<path d="M73.0594 51.5297L36.5297 73.8128V147.968L73.0594 51.5297Z" fill="#E8622A"/>
<path d="M36.5297 42.032L73.0594 78.5617L36.5297 100.845L-3.8147e-06 78.5617L36.5297 42.032Z" fill="#5DCAA5"/>
<path d="M7.62939e-06 78.5616L36.5297 100.845V175L7.62939e-06 78.5616Z" fill="#1D9E75"/>
<path d="M73.0594 78.5616L36.5297 100.845V175L73.0594 78.5616Z" fill="#1D9E75"/>
</svg>
