<svg width="601" height="168" viewBox="0 0 601 168" fill="none" xmlns="http://www.w3.org/2000/svg">
<g filter="url(#filter0_d_109_2)">
<rect width="586" height="156" rx="21" fill="#B84A1C"/>
<rect x="2.5" y="2.5" width="581" height="151" rx="18.5" stroke="black" stroke-width="5"/>
</g>
<path d="M540.718 40.8159L540.722 42.8198L540.752 58.4263H522.141V74.1665H540.782L540.833 100.485C540.833 103.197 540.154 105.018 539.057 106.227C537.9 107.35 536.175 108.035 533.598 108.035H522.141V125.732H532.82C538.539 125.732 543.412 124.985 547.361 123.401L547.407 123.381C551.408 121.657 554.425 118.789 556.412 114.849L556.42 114.833C558.388 110.848 559.297 105.672 559.297 99.4458V99.4419L559.247 74.1665H568.865V58.4263H559.216L559.186 42.812L559.182 40.8159H540.718Z" fill="#EAE2D4" stroke="black" stroke-width="4"/>
<path d="M492.117 56.5845C499.832 56.5845 506.292 58.3421 511.325 62.0366C516.492 65.8306 519.131 71.3934 519.372 78.4282L519.443 80.4966H501.599L501.47 78.6343C501.366 77.129 500.664 75.7773 499.105 74.5366C497.664 73.39 495.394 72.6704 492.005 72.6704C488.973 72.6704 486.93 73.2811 485.622 74.2397C484.316 75.1962 483.769 76.3037 483.769 77.6909C483.769 79.1417 484.244 80.0471 485.079 80.6909C486.149 81.4558 488.104 82.1272 491.238 82.4956H491.237L496.559 83.0688C503.925 83.8626 509.904 85.9884 514.305 89.6138H514.304C518.88 93.3205 521.153 98.3567 521.153 104.509C521.153 109.03 519.931 113.054 517.439 116.496C515.043 119.828 511.692 122.38 507.481 124.188C503.247 126.006 498.331 126.882 492.785 126.882C484.208 126.882 477.201 125.022 471.993 121.065L471.978 121.054L471.964 121.043C466.787 116.963 464.101 111.326 463.86 104.348L463.789 102.28H481.57L481.756 104.074C481.913 105.585 482.719 107.103 484.511 108.625C486.059 109.94 488.751 110.796 493.006 110.796C496.495 110.796 499.002 110.143 500.716 109.042L500.729 109.034L500.742 109.026C502.45 107.966 503.134 106.693 503.134 105.085C503.134 103.668 502.599 102.618 501.407 101.759L501.39 101.747L501.372 101.734C500.205 100.856 497.86 100.086 493.928 99.7095L493.905 99.7075L488.565 99.1313L488.553 99.1304C481.553 98.3345 475.918 96.2396 471.875 92.6548C467.765 89.0098 465.751 84.1427 465.75 78.2671C465.75 73.6392 466.873 69.6046 469.237 66.2866C471.556 63.03 474.733 60.6163 478.688 59.0298C482.674 57.3838 487.162 56.5845 492.117 56.5845Z" fill="#EAE2D4" stroke="black" stroke-width="4"/>
<path d="M455.042 58.4258V124.926H435.577V74.3965H427.121V58.4258H455.042ZM443.251 33.5645C446.618 33.5645 449.505 34.4611 451.432 36.665C453.226 38.7164 454.041 41.3299 454.041 44.3125C454.041 47.1781 453.206 49.7196 451.461 51.8096L451.447 51.8271L451.432 51.8438C449.505 54.0477 446.618 54.9443 443.251 54.9443C439.874 54.9443 436.984 54.0446 434.993 51.8818L434.96 51.8467L434.928 51.8096C433.184 49.7196 432.35 47.1781 432.35 44.3125C432.35 41.3299 433.164 38.7164 434.959 36.665L434.975 36.6455L434.993 36.627C436.984 34.4643 439.875 33.5645 443.251 33.5645Z" fill="#EAE2D4" stroke="black" stroke-width="4"/>
<path d="M419.028 36.9023V124.926H399.562V52.873H391.997V36.9023H419.028Z" fill="#EAE2D4" stroke="black" stroke-width="4"/>
<path d="M371.226 40.8159L371.222 42.8198L371.192 58.4263H389.803V74.1665H371.162L371.111 100.485C371.112 103.197 371.79 105.018 372.887 106.227C374.044 107.35 375.77 108.035 378.346 108.035H389.803V125.732H379.125C373.406 125.732 368.532 124.985 364.584 123.401L364.537 123.381C360.537 121.657 357.519 118.789 355.532 114.849L355.524 114.833C353.557 110.848 352.647 105.672 352.647 99.4458V99.4419L352.697 74.1665H343.079V58.4263H352.728L352.759 42.812L352.762 40.8159H371.226Z" fill="#EAE2D4" stroke="black" stroke-width="4"/>
<path d="M314.322 56.4692C322.006 56.4693 328.096 59.0795 332.254 64.4907C336.355 69.7512 338.24 77.4096 338.24 87.1294V124.925H318.776V85.7485C318.776 82.3049 317.821 79.7075 316.066 77.7661L316.042 77.7407C314.412 75.8742 312.112 74.857 308.87 74.8569C305.565 74.8569 303.028 75.9085 301.073 77.9302C299.213 79.8545 298.187 82.5347 298.187 86.2085V124.925H278.721V58.4263H294.96V65.6147C296.443 63.3564 298.254 61.4853 300.409 60.0337L300.427 60.022C304.086 57.613 308.534 56.4692 313.654 56.4692H314.322Z" fill="#EAE2D4" stroke="black" stroke-width="4"/>
<path d="M225.792 58.311V97.9487C225.792 101.405 226.716 103.953 228.381 105.804C230.014 107.547 232.262 108.495 235.363 108.495C238.427 108.495 240.771 107.494 242.581 105.56L242.591 105.548L242.603 105.537C244.463 103.612 245.49 100.932 245.49 97.2583V58.311H264.956V124.925H248.716V118.246C247.341 120.263 245.683 121.959 243.73 123.306C240.21 125.734 235.894 126.882 230.912 126.882H230.245C222.763 126.882 216.739 124.3 212.447 119.005L212.441 118.999L212.435 118.991C208.255 113.733 206.326 106.15 206.326 96.5679V58.311H225.792Z" fill="#EAE2D4" stroke="black" stroke-width="4"/>
<path d="M154.98 36.9023V63.5703C155.982 62.3483 157.1 61.2652 158.338 60.3281L158.347 60.3213L158.355 60.3135C161.886 57.7044 166.261 56.4698 171.338 56.4697H172.006C179.444 56.4697 185.32 59.1555 189.312 64.6621C193.222 70.0545 195.034 77.6756 195.034 87.2441V124.926H175.569V85.748C175.569 82.1424 174.574 79.5427 172.793 77.7002L172.781 77.6875L172.77 77.6758C171.048 75.8331 168.75 74.8575 165.664 74.8574C162.399 74.8574 159.874 75.9557 157.909 78.1143C156.012 80.204 154.98 83.0272 154.98 86.7842V124.926H135.515V36.9023H154.98Z" fill="#EAE2D4" stroke="black" stroke-width="4"/>
<path d="M64.038 37.2323C65.1719 27.4642 78.8702 27.4642 80.0041 37.2323V37.2323C80.7897 44.0002 88.6792 46.9708 93.4863 42.3087V42.3087C100.424 35.5799 110.918 44.6888 105.717 52.9256V52.9256C102.114 58.6325 106.311 66.1544 112.891 65.7795V65.7795C122.386 65.2385 124.765 79.1941 115.663 82.0455V82.0455C109.357 84.0211 107.899 92.5746 113.172 96.6624V96.6624C120.782 102.562 113.933 114.835 105.189 110.966V110.966C99.1302 108.286 92.6986 113.869 94.1979 120.507V120.507C96.3619 130.087 83.4897 134.934 79.1948 126.156V126.156C76.219 120.074 67.8231 120.074 64.8473 126.156V126.156C60.5524 134.934 47.6802 130.087 49.8442 120.507V120.507C51.3435 113.869 44.9119 108.286 38.8534 110.966V110.966C30.1092 114.835 23.26 102.562 30.8704 96.6624V96.6624C36.1432 92.5746 34.6853 84.0211 28.379 82.0455V82.0455C19.277 79.1941 21.6557 65.2385 31.1514 65.7795V65.7795C37.7306 66.1544 41.9286 58.6325 38.3251 52.9256V52.9256C33.1243 44.6888 43.6178 35.5799 50.5558 42.3087V42.3087C55.3629 46.9708 63.2524 44.0002 64.038 37.2323V37.2323Z" fill="black"/>
<path d="M60.9127 31.5746C62.0465 21.8065 75.7448 21.8065 76.8787 31.5746V31.5746C77.6643 38.3425 85.5539 41.3131 90.3609 36.651V36.651C97.2989 29.9222 107.792 39.0311 102.592 47.2679V47.2679C98.9882 52.9748 103.186 60.4967 109.765 60.1218V60.1218C119.261 59.5808 121.64 73.5364 112.538 76.3878V76.3878C106.231 78.3634 104.773 86.9169 110.046 91.0047V91.0047C117.657 96.9046 110.808 109.177 102.063 105.309V105.309C96.0049 102.629 89.5732 108.212 91.0726 114.849V114.849C93.2366 124.429 80.3644 129.276 76.0694 120.498V120.498C73.0936 114.417 64.6977 114.417 61.722 120.498V120.498C57.427 129.276 44.5548 124.429 46.7188 114.849V114.849C48.2181 108.212 41.7865 102.629 35.728 105.309V105.309C26.9838 109.177 20.1346 96.9046 27.745 91.0047V91.0047C33.0179 86.9169 31.5599 78.3634 25.2536 76.3878V76.3878C16.1516 73.5364 18.5303 59.5808 28.0261 60.1218V60.1218C34.6053 60.4967 38.8032 52.9748 35.1998 47.2679V47.2679C29.999 39.0311 40.4925 29.9222 47.4305 36.651V36.651C52.2375 41.3131 60.1271 38.3425 60.9127 31.5746V31.5746Z" fill="#6DBE00"/>
<path d="M60.913 31.5746C62.0469 21.8065 75.7446 21.8065 76.8784 31.5746C77.6518 38.2368 85.3093 41.2195 90.1336 36.864L90.361 36.6509C97.299 29.9223 107.792 39.0309 102.591 47.2676C99.0444 52.8853 103.057 60.2623 109.459 60.1339L109.765 60.1221C119.261 59.5811 121.639 73.5367 112.537 76.3881L112.246 76.4852C106.188 78.6295 104.856 86.9804 110.046 91.0044C117.538 96.8121 111.018 108.795 102.472 105.479L102.063 105.309C96.005 102.629 89.5738 108.211 91.0729 114.849C93.2031 124.279 80.7633 129.123 76.2772 120.9L76.0696 120.498C73.0939 114.417 64.6976 114.417 61.7218 120.498C57.4268 129.276 44.5545 124.429 46.7185 114.849C48.2177 108.211 41.7864 102.629 35.728 105.309L35.3197 105.479C26.909 108.743 20.4608 97.1885 27.3988 91.2854L27.7452 91.0044C32.9355 86.9804 31.6037 78.6295 25.5455 76.4852L25.254 76.3881C16.152 73.5367 18.5303 59.5811 28.026 60.1221C34.5024 60.4911 38.6715 53.2079 35.3632 47.5367L35.2 47.2676C29.9993 39.0309 40.4924 29.9223 47.4304 36.6509C52.1624 41.2402 59.8818 38.4334 60.871 31.8887L60.913 31.5746ZM74.6443 31.8524C73.8279 24.8187 63.9636 24.8187 63.1471 31.8524C62.1414 40.5146 52.044 44.3165 45.8914 38.3495C40.8957 33.5044 33.3393 40.0634 37.0839 45.9944C41.696 53.2988 36.3233 62.9264 27.9024 62.4467C21.065 62.0571 19.352 72.1056 25.9056 74.159C33.9773 76.6876 35.8438 87.636 29.095 92.8681C23.6151 97.1164 28.5465 105.953 34.8429 103.167C42.5973 99.7371 50.8297 106.884 48.9107 115.379C47.3528 122.278 56.6208 125.767 59.7135 119.447C63.5223 111.663 74.2691 111.663 78.0779 119.447C81.1706 125.767 90.4386 122.278 88.8808 115.379C86.9617 106.884 95.1941 99.7371 102.949 103.167C109.245 105.953 114.176 97.1164 108.696 92.8681C101.948 87.636 103.814 76.6876 111.886 74.159C118.439 72.1055 116.726 62.0571 109.889 62.4467C101.468 62.9264 96.0955 53.2988 100.708 45.9944C104.452 40.0634 96.8958 33.5044 91.9 38.3495C85.7474 44.3165 75.65 40.5146 74.6443 31.8524Z" fill="black"/>
<path d="M76.9543 52.5228L71.0036 63.5665C71.5278 63.4081 72.0605 63.2953 72.6015 63.2289L72.6088 63.2275L72.6171 63.2267C74.8612 62.9789 77.1064 63.5463 79.3188 64.8236L79.7222 65.0565C83.0703 66.9895 85.0572 69.8061 85.479 73.4591L85.5163 73.7974C85.8542 77.3091 84.7295 81.2769 82.3826 85.6323L72.929 103.177L61.4372 96.5423L71.0878 78.6322C71.6641 77.5625 71.7765 76.6137 71.5505 75.7196L71.5467 75.7061L71.5437 75.6932C71.3352 74.7941 70.8092 74.0687 69.8195 73.4973C68.8302 72.9261 67.9293 72.8284 67.0322 73.1121L67.0199 73.1163L67.0068 73.12C66.1436 73.3731 65.3921 73.9808 64.7759 75.1244L55.1814 92.9305L43.6896 86.2958L65.4625 45.888L76.9543 52.5228Z" fill="#EAE2D4" stroke="black" stroke-width="2.67333"/>
<defs>
<filter id="filter0_d_109_2" x="0" y="0" width="601" height="168" filterUnits="userSpaceOnUse" color-interpolation-filters="sRGB">
<feFlood flood-opacity="0" result="BackgroundImageFix"/>
<feColorMatrix in="SourceAlpha" type="matrix" values="0 0 0 0 0 0 0 0 0 0 0 0 0 0 0 0 0 0 127 0" result="hardAlpha"/>
<feOffset dx="15" dy="12"/>
<feComposite in2="hardAlpha" operator="out"/>
<feColorMatrix type="matrix" values="0 0 0 0 0 0 0 0 0 0 0 0 0 0 0 0 0 0 1 0"/>
<feBlend mode="normal" in2="BackgroundImageFix" result="effect1_dropShadow_109_2"/>
<feBlend mode="normal" in="SourceGraphic" in2="effect1_dropShadow_109_2" result="shape"/>
</filter>
</defs>
</svg>
